<?xml version="1.0" encoding="UTF-8" standalone="no"?>
<!DOCTYPE svg PUBLIC "-//W3C//DTD SVG 1.1//EN" "http://www.w3.org/Graphics/SVG/1.1/DTD/svg11.dtd">
<svg version="1.1" xmlns="http://www.w3.org/2000/svg" xmlns:xlink="http://www.w3.org/1999/xlink" preserveAspectRatio="xMidYMid meet" viewBox="0 0 640 640" width="640" height="640"><defs><path d="M324.21 256.32C324.21 287.69 297.8 313.16 265.26 313.16C232.73 313.16 206.32 287.69 206.32 256.32C206.32 224.94 232.73 199.47 265.26 199.47C297.8 199.47 324.21 224.94 324.21 256.32Z" id="avDZrPN7Q"></path><path d="M268.42 253.16C268.42 254.9 267.01 256.32 265.26 256.32C263.52 256.32 262.11 254.9 262.11 253.16C262.11 251.42 263.52 250 265.26 250C267.01 250 268.42 251.42 268.42 253.16Z" id="a9BM7t4xP"></path><path d="M401.05 227.89C401.05 229.64 399.64 231.05 397.89 231.05C396.15 231.05 394.74 229.64 394.74 227.89C394.74 226.15 396.15 224.74 397.89 224.74C399.64 224.74 401.05 226.15 401.05 227.89Z" id="d1Sn486adG"></path><path d="M416.84 293.16C416.84 294.9 415.43 296.32 413.68 296.32C411.94 296.32 410.53 294.9 410.53 293.16C410.53 291.42 411.94 290 413.68 290C415.43 290 416.84 291.42 416.84 293.16Z" id="a1b0PoMk1s"></path><path d="M461.05 265.79C461.05 267.53 459.64 268.95 457.89 268.95C456.15 268.95 454.74 267.53 454.74 265.79C454.74 264.05 456.15 262.63 457.89 262.63C459.64 262.63 461.05 264.05 461.05 265.79Z" id="gKMoKcehW"></path><path d="M501.05 128.95C501.05 130.69 499.64 132.11 497.89 132.11C496.15 132.11 494.74 130.69 494.74 128.95C494.74 127.2 496.15 125.79 497.89 125.79C499.64 125.79 501.05 127.2 501.05 128.95Z" id="b2g09QWTsk"></path><path d="M187.37 139.47C187.37 141.22 185.95 142.63 184.21 142.63C182.47 142.63 181.05 141.22 181.05 139.47C181.05 137.73 182.47 136.32 184.21 136.32C185.95 136.32 187.37 137.73 187.37 139.47Z" id="bnJRTTAS"></path><path d="M151.58 256.32C151.58 258.06 150.16 259.47 148.42 259.47C146.68 259.47 145.26 258.06 145.26 256.32C145.26 254.57 146.68 253.16 148.42 253.16C150.16 253.16 151.58 254.57 151.58 256.32Z" id="ajFaAighD"></path><path d="M207.37 256.32C207.37 287.69 180.95 313.16 148.42 313.16C115.89 313.16 89.47 287.69 89.47 256.32C89.47 224.94 115.89 199.47 148.42 199.47C180.95 199.47 207.37 224.94 207.37 256.32Z" id="bmhlvMGdP"></path><path d="M243.16 139.47C243.16 170.85 216.74 196.32 184.21 196.32C151.68 196.32 125.26 170.85 125.26 139.47C125.26 108.1 151.68 82.63 184.21 82.63C216.74 82.63 243.16 108.1 243.16 139.47Z" id="cvr6tUhXI"></path><path d="M553.68 128.95C553.68 160.32 527.27 185.79 494.74 185.79C462.2 185.79 435.79 160.32 435.79 128.95C435.79 97.58 462.2 72.11 494.74 72.11C527.27 72.11 553.68 97.58 553.68 128.95Z" id="bE6bcVfIZ"></path><path d="M454.74 224.74C454.74 256.11 428.32 281.58 395.79 281.58C363.26 281.58 336.84 256.11 336.84 224.74C336.84 193.36 363.26 167.89 395.79 167.89C428.32 167.89 454.74 193.36 454.74 224.74Z" id="ax4ayJP6f"></path><path d="M472.63 290C472.63 321.37 446.22 346.84 413.68 346.84C381.15 346.84 354.74 321.37 354.74 290C354.74 258.63 381.15 233.16 413.68 233.16C446.22 233.16 472.63 258.63 472.63 290Z" id="ciNppzVrg"></path><path d="M513.68 263.16C513.68 294.53 487.27 320 454.74 320C422.2 320 395.79 294.53 395.79 263.16C395.79 231.79 422.2 206.32 454.74 206.32C487.27 206.32 513.68 231.79 513.68 263.16Z" id="b202jr29cD"></path><path d="M398.95 139.47C398.95 137.73 397.53 136.32 395.79 136.32C394.05 136.32 392.63 137.73 392.63 139.47C392.63 141.22 394.05 142.63 395.79 142.63C397.53 142.63 398.95 141.22 398.95 139.47Z" id="a2eX70mFJi"></path><path d="M303.16 353.16C303.16 351.42 301.74 350 300 350C298.26 350 296.84 351.42 296.84 353.16C296.84 354.9 298.26 356.32 300 356.32C301.74 356.32 303.16 354.9 303.16 353.16Z" id="e1oLdlzBwz"></path><path d="M326.01 94.95C327.58 95.71 329.47 95.04 330.22 93.47C330.97 91.9 330.3 90.01 328.73 89.26C327.16 88.5 325.27 89.17 324.52 90.74C323.77 92.32 324.43 94.2 326.01 94.95Z" id="abEvqIpA5"></path><path d="M186.01 512.85C187.58 513.6 189.47 512.93 190.22 511.36C190.97 509.79 190.3 507.9 188.73 507.15C187.16 506.4 185.27 507.07 184.52 508.64C183.77 510.21 184.43 512.1 186.01 512.85Z" id="e4xgTJuCNN"></path><path d="M358.95 350C358.95 381.37 332.53 406.84 300 406.84C267.47 406.84 241.05 381.37 241.05 350C241.05 318.63 267.47 293.16 300 293.16C332.53 293.16 358.95 318.63 358.95 350Z" id="bFGJktxv"></path><path d="M246.32 510C246.32 541.37 219.9 566.84 187.37 566.84C154.83 566.84 128.42 541.37 128.42 510C128.42 478.63 154.83 453.16 187.37 453.16C219.9 453.16 246.32 478.63 246.32 510Z" id="f4dw9aEbkA"></path><path d="M454.74 139.47C454.74 170.85 428.32 196.32 395.79 196.32C363.26 196.32 336.84 170.85 336.84 139.47C336.84 108.1 363.26 82.63 395.79 82.63C428.32 82.63 454.74 108.1 454.74 139.47Z" id="a1evMzSrfp"></path><path d="M389.47 88.95C389.47 120.32 363.06 145.79 330.53 145.79C297.99 145.79 271.58 120.32 271.58 88.95C271.58 57.58 297.99 32.11 330.53 32.11C363.06 32.11 389.47 57.58 389.47 88.95Z" id="cZpOf0KcS"></path><path d="M299.96 93.33C298.74 124.68 271.36 149.11 238.86 147.85C206.35 146.59 180.94 120.12 182.15 88.77C183.36 57.43 210.74 33 243.25 34.25C275.76 35.51 301.17 61.98 299.96 93.33Z" id="d1PvNRGLUD"></path><path d="M247.37 85.79C247.37 87.53 245.95 88.95 244.21 88.95C242.47 88.95 241.05 87.53 241.05 85.79C241.05 84.05 242.47 82.63 244.21 82.63C245.95 82.63 247.37 84.05 247.37 85.79Z" id="bbGvMs5KW"></path><path d="M497.89 128.95L395.79 139.47L327.37 92.11L244.21 85.79L184.21 139.47" id="b5jFBbCHjg"></path><path d="M397.89 227.89L395.79 139.47" id="aQO5UBXio"></path><path d="" id="a4y4Ga4Og1"></path><path d="" id="c1UqYwgsZz"></path><path d="M457.89 265.79L413.68 293.16L396.84 227.89L457.89 265.79Z" id="g1O4pg3RTn"></path><path d="" id="au0CmxOm0"></path><path d="M300 353.16L265.26 253.16L148.42 256.32" id="eR4IQYhML"></path><path d="M262.11 276.32C262.11 307.69 235.69 333.16 203.16 333.16C170.62 333.16 144.21 307.69 144.21 276.32C144.21 244.94 170.62 219.47 203.16 219.47C235.69 219.47 262.11 244.94 262.11 276.32Z" id="alxXGSRs0"></path><path d="M231.58 306.84C231.58 338.21 205.17 363.68 172.63 363.68C140.1 363.68 113.68 338.21 113.68 306.84C113.68 275.47 140.1 250 172.63 250C205.17 250 231.58 275.47 231.58 306.84Z" id="a8uKWekiVb"></path><path d="M210.53 272.11C210.53 273.85 209.11 275.26 207.37 275.26C205.63 275.26 204.21 273.85 204.21 272.11C204.21 270.36 205.63 268.95 207.37 268.95C209.11 268.95 210.53 270.36 210.53 272.11Z" id="c1y8tWpgj"></path><path d="M175.79 310C175.79 311.74 174.37 313.16 172.63 313.16C170.89 313.16 169.47 311.74 169.47 310C169.47 308.26 170.89 306.84 172.63 306.84C174.37 306.84 175.79 308.26 175.79 310Z" id="aEp5RKhvK"></path><path d="M265.26 253.16L207.37 272.11L148.42 256.32" id="g59Zld2ox8"></path><path d="" id="a95IfuvzV"></path><path d="M207.37 272.11L172.63 310L265.26 253.16" id="b5qRaPBpQB"></path><path d="" id="bbP8633ue"></path><path d="M151.58 256.32L207.37 272.11L172.63 310L151.58 256.32Z" id="f2sUpN0j9v"></path></defs><g><g><g><g><use xlink:href="#avDZrPN7Q" opacity="1" fill-opacity="0" stroke="#2d14e7" stroke-width="1" stroke-opacity="1"></use></g><g><filter id="shadow4896978" x="197.32" y="190.47" width="136.89" height="132.68" filterUnits="userSpaceOnUse" primitiveUnits="userSpaceOnUse"><feFlood></feFlood><feComposite in2="SourceAlpha" operator="out"></feComposite><feGaussianBlur stdDeviation="1"></feGaussianBlur><feOffset dx="1" dy="1" result="afterOffset"></feOffset><feFlood flood-color="#ffffff" flood-opacity="0.8"></feFlood><feComposite in2="afterOffset" operator="in"></feComposite><feMorphology operator="dilate" radius="1"></feMorphology><feComposite in2="SourceAlpha" operator="in"></feComposite></filter><path d="M324.21 256.32C324.21 287.69 297.8 313.16 265.26 313.16C232.73 313.16 206.32 287.69 206.32 256.32C206.32 224.94 232.73 199.47 265.26 199.47C297.8 199.47 324.21 224.94 324.21 256.32Z" id="a1XG64RqtX" fill="white" fill-opacity="1" filter="url(#shadow4896978)"></path></g></g><g><use xlink:href="#a9BM7t4xP" opacity="1" fill="#000000" fill-opacity="1"></use></g><g><use xlink:href="#d1Sn486adG" opacity="1" fill="#000000" fill-opacity="1"></use></g><g><use xlink:href="#a1b0PoMk1s" opacity="1" fill="#000000" fill-opacity="1"></use></g><g><use xlink:href="#gKMoKcehW" opacity="1" fill="#000000" fill-opacity="1"></use></g><g><use xlink:href="#b2g09QWTsk" opacity="1" fill="#000000" fill-opacity="1"></use></g><g><use xlink:href="#bnJRTTAS" opacity="1" fill="#000000" fill-opacity="1"></use></g><g><use xlink:href="#ajFaAighD" opacity="1" fill="#000000" fill-opacity="1"></use></g><g><g><use xlink:href="#bmhlvMGdP" opacity="1" fill-opacity="0" stroke="#2d14e7" stroke-width="1" stroke-opacity="1"></use></g><g><filter id="shadow13606949" x="80.47" y="190.47" width="136.89" height="132.68" filterUnits="userSpaceOnUse" primitiveUnits="userSpaceOnUse"><feFlood></feFlood><feComposite in2="SourceAlpha" operator="out"></feComposite><feGaussianBlur stdDeviation="1"></feGaussianBlur><feOffset dx="1" dy="1" result="afterOffset"></feOffset><feFlood flood-color="#ffffff" flood-opacity="0.8"></feFlood><feComposite in2="afterOffset" operator="in"></feComposite><feMorphology operator="dilate" radius="1"></feMorphology><feComposite in2="SourceAlpha" operator="in"></feComposite></filter><path d="M207.37 256.32C207.37 287.69 180.95 313.16 148.42 313.16C115.89 313.16 89.47 287.69 89.47 256.32C89.47 224.94 115.89 199.47 148.42 199.47C180.95 199.47 207.37 224.94 207.37 256.32Z" id="b147K7IBOw" fill="white" fill-opacity="1" filter="url(#shadow13606949)"></path></g></g><g><g><use xlink:href="#cvr6tUhXI" opacity="1" fill-opacity="0" stroke="#2d14e7" stroke-width="1" stroke-opacity="1"></use></g><g><filter id="shadow13170815" x="116.26" y="73.63" width="136.89" height="132.68" filterUnits="userSpaceOnUse" primitiveUnits="userSpaceOnUse"><feFlood></feFlood><feComposite in2="SourceAlpha" operator="out"></feComposite><feGaussianBlur stdDeviation="1"></feGaussianBlur><feOffset dx="1" dy="1" result="afterOffset"></feOffset><feFlood flood-color="#ffffff" flood-opacity="0.8"></feFlood><feComposite in2="afterOffset" operator="in"></feComposite><feMorphology operator="dilate" radius="1"></feMorphology><feComposite in2="SourceAlpha" operator="in"></feComposite></filter><path d="M243.16 139.47C243.16 170.85 216.74 196.32 184.21 196.32C151.68 196.32 125.26 170.85 125.26 139.47C125.26 108.1 151.68 82.63 184.21 82.63C216.74 82.63 243.16 108.1 243.16 139.47Z" id="a4w2AMBjqJ" fill="white" fill-opacity="1" filter="url(#shadow13170815)"></path></g></g><g><g><use xlink:href="#bE6bcVfIZ" opacity="1" fill-opacity="0" stroke="#2d14e7" stroke-width="1" stroke-opacity="1"></use></g><g><filter id="shadow15868542" x="426.79" y="63.11" width="136.89" height="132.68" filterUnits="userSpaceOnUse" primitiveUnits="userSpaceOnUse"><feFlood></feFlood><feComposite in2="SourceAlpha" operator="out"></feComposite><feGaussianBlur stdDeviation="1"></feGaussianBlur><feOffset dx="1" dy="1" result="afterOffset"></feOffset><feFlood flood-color="#ffffff" flood-opacity="0.8"></feFlood><feComposite in2="afterOffset" operator="in"></feComposite><feMorphology operator="dilate" radius="1"></feMorphology><feComposite in2="SourceAlpha" operator="in"></feComposite></filter><path d="M553.68 128.95C553.68 160.32 527.27 185.79 494.74 185.79C462.2 185.79 435.79 160.32 435.79 128.95C435.79 97.58 462.2 72.11 494.74 72.11C527.27 72.11 553.68 97.58 553.68 128.95Z" id="c1z9obqZCJ" fill="white" fill-opacity="1" filter="url(#shadow15868542)"></path></g></g><g><g><use xlink:href="#ax4ayJP6f" opacity="1" fill-opacity="0" stroke="#2d14e7" stroke-width="1" stroke-opacity="1"></use></g><g><filter id="shadow6926099" x="327.84" y="158.89" width="136.89" height="132.68" filterUnits="userSpaceOnUse" primitiveUnits="userSpaceOnUse"><feFlood></feFlood><feComposite in2="SourceAlpha" operator="out"></feComposite><feGaussianBlur stdDeviation="1"></feGaussianBlur><feOffset dx="1" dy="1" result="afterOffset"></feOffset><feFlood flood-color="#ffffff" flood-opacity="0.8"></feFlood><feComposite in2="afterOffset" operator="in"></feComposite><feMorphology operator="dilate" radius="1"></feMorphology><feComposite in2="SourceAlpha" operator="in"></feComposite></filter><path d="M454.74 224.74C454.74 256.11 428.32 281.58 395.79 281.58C363.26 281.58 336.84 256.11 336.84 224.74C336.84 193.36 363.26 167.89 395.79 167.89C428.32 167.89 454.74 193.36 454.74 224.74Z" id="a2F7PB1z8Q" fill="white" fill-opacity="1" filter="url(#shadow6926099)"></path></g></g><g><g><use xlink:href="#ciNppzVrg" opacity="1" fill-opacity="0" stroke="#2d14e7" stroke-width="1" stroke-opacity="1"></use></g><g><filter id="shadow3006682" x="345.74" y="224.16" width="136.89" height="132.68" filterUnits="userSpaceOnUse" primitiveUnits="userSpaceOnUse"><feFlood></feFlood><feComposite in2="SourceAlpha" operator="out"></feComposite><feGaussianBlur stdDeviation="1"></feGaussianBlur><feOffset dx="1" dy="1" result="afterOffset"></feOffset><feFlood flood-color="#ffffff" flood-opacity="0.8"></feFlood><feComposite in2="afterOffset" operator="in"></feComposite><feMorphology operator="dilate" radius="1"></feMorphology><feComposite in2="SourceAlpha" operator="in"></feComposite></filter><path d="M472.63 290C472.63 321.37 446.22 346.84 413.68 346.84C381.15 346.84 354.74 321.37 354.74 290C354.74 258.63 381.15 233.16 413.68 233.16C446.22 233.16 472.63 258.63 472.63 290Z" id="g3wMEhOvsm" fill="white" fill-opacity="1" filter="url(#shadow3006682)"></path></g></g><g><g><use xlink:href="#b202jr29cD" opacity="1" fill-opacity="0" stroke="#2d14e7" stroke-width="1" stroke-opacity="1"></use></g><g><filter id="shadow13958081" x="386.79" y="197.32" width="136.89" height="132.68" filterUnits="userSpaceOnUse" primitiveUnits="userSpaceOnUse"><feFlood></feFlood><feComposite in2="SourceAlpha" operator="out"></feComposite><feGaussianBlur stdDeviation="1"></feGaussianBlur><feOffset dx="1" dy="1" result="afterOffset"></feOffset><feFlood flood-color="#ffffff" flood-opacity="0.8"></feFlood><feComposite in2="afterOffset" operator="in"></feComposite><feMorphology operator="dilate" radius="1"></feMorphology><feComposite in2="SourceAlpha" operator="in"></feComposite></filter><path d="M513.68 263.16C513.68 294.53 487.27 320 454.74 320C422.2 320 395.79 294.53 395.79 263.16C395.79 231.79 422.2 206.32 454.74 206.32C487.27 206.32 513.68 231.79 513.68 263.16Z" id="a3QgyRWzgQ" fill="white" fill-opacity="1" filter="url(#shadow13958081)"></path></g></g><g><use xlink:href="#a2eX70mFJi" opacity="1" fill="#000000" fill-opacity="1"></use></g><g><use xlink:href="#e1oLdlzBwz" opacity="1" fill="#000000" fill-opacity="1"></use></g><g><use xlink:href="#abEvqIpA5" opacity="1" fill="#000000" fill-opacity="1"></use></g><g><use xlink:href="#e4xgTJuCNN" opacity="1" fill="#000000" fill-opacity="1"></use></g><g><g><use xlink:href="#bFGJktxv" opacity="1" fill-opacity="0" stroke="#2d14e7" stroke-width="1" stroke-opacity="1"></use></g><g><filter id="shadow16650612" x="232.05" y="284.16" width="136.89" height="132.68" filterUnits="userSpaceOnUse" primitiveUnits="userSpaceOnUse"><feFlood></feFlood><feComposite in2="SourceAlpha" operator="out"></feComposite><feGaussianBlur stdDeviation="1"></feGaussianBlur><feOffset dx="1" dy="1" result="afterOffset"></feOffset><feFlood flood-color="#ffffff" flood-opacity="0.8"></feFlood><feComposite in2="afterOffset" operator="in"></feComposite><feMorphology operator="dilate" radius="1"></feMorphology><feComposite in2="SourceAlpha" operator="in"></feComposite></filter><path d="M358.95 350C358.95 381.37 332.53 406.84 300 406.84C267.47 406.84 241.05 381.37 241.05 350C241.05 318.63 267.47 293.16 300 293.16C332.53 293.16 358.95 318.63 358.95 350Z" id="bhOOIjMuB" fill="white" fill-opacity="1" filter="url(#shadow16650612)"></path></g></g><g><g><use xlink:href="#f4dw9aEbkA" opacity="1" fill-opacity="0" stroke="#2d14e7" stroke-width="1" stroke-opacity="1"></use></g><g><filter id="shadow11332954" x="119.42" y="444.16" width="136.89" height="132.68" filterUnits="userSpaceOnUse" primitiveUnits="userSpaceOnUse"><feFlood></feFlood><feComposite in2="SourceAlpha" operator="out"></feComposite><feGaussianBlur stdDeviation="1"></feGaussianBlur><feOffset dx="1" dy="1" result="afterOffset"></feOffset><feFlood flood-color="#ffffff" flood-opacity="0.8"></feFlood><feComposite in2="afterOffset" operator="in"></feComposite><feMorphology operator="dilate" radius="1"></feMorphology><feComposite in2="SourceAlpha" operator="in"></feComposite></filter><path d="M246.32 510C246.32 541.37 219.9 566.84 187.37 566.84C154.83 566.84 128.42 541.37 128.42 510C128.42 478.63 154.83 453.16 187.37 453.16C219.9 453.16 246.32 478.63 246.32 510Z" id="d2sTfjbShb" fill="white" fill-opacity="1" filter="url(#shadow11332954)"></path></g></g><g><g><use xlink:href="#a1evMzSrfp" opacity="1" fill-opacity="0" stroke="#2d14e7" stroke-width="1" stroke-opacity="1"></use></g><g><filter id="shadow416729" x="327.84" y="73.63" width="136.89" height="132.68" filterUnits="userSpaceOnUse" primitiveUnits="userSpaceOnUse"><feFlood></feFlood><feComposite in2="SourceAlpha" operator="out"></feComposite><feGaussianBlur stdDeviation="1"></feGaussianBlur><feOffset dx="1" dy="1" result="afterOffset"></feOffset><feFlood flood-color="#ffffff" flood-opacity="0.8"></feFlood><feComposite in2="afterOffset" operator="in"></feComposite><feMorphology operator="dilate" radius="1"></feMorphology><feComposite in2="SourceAlpha" operator="in"></feComposite></filter><path d="M454.74 139.47C454.74 170.85 428.32 196.32 395.79 196.32C363.26 196.32 336.84 170.85 336.84 139.47C336.84 108.1 363.26 82.63 395.79 82.63C428.32 82.63 454.74 108.1 454.74 139.47Z" id="d1knLfnRCe" fill="white" fill-opacity="1" filter="url(#shadow416729)"></path></g></g><g><g><use xlink:href="#cZpOf0KcS" opacity="1" fill-opacity="0" stroke="#2d14e7" stroke-width="1" stroke-opacity="1"></use></g><g><filter id="shadow2373860" x="262.58" y="23.11" width="136.89" height="132.68" filterUnits="userSpaceOnUse" primitiveUnits="userSpaceOnUse"><feFlood></feFlood><feComposite in2="SourceAlpha" operator="out"></feComposite><feGaussianBlur stdDeviation="1"></feGaussianBlur><feOffset dx="1" dy="1" result="afterOffset"></feOffset><feFlood flood-color="#ffffff" flood-opacity="0.8"></feFlood><feComposite in2="afterOffset" operator="in"></feComposite><feMorphology operator="dilate" radius="1"></feMorphology><feComposite in2="SourceAlpha" operator="in"></feComposite></filter><path d="M389.47 88.95C389.47 120.32 363.06 145.79 330.53 145.79C297.99 145.79 271.58 120.32 271.58 88.95C271.58 57.58 297.99 32.11 330.53 32.11C363.06 32.11 389.47 57.58 389.47 88.95Z" id="e6YEbLws8P" fill="white" fill-opacity="1" filter="url(#shadow2373860)"></path></g></g><g><g><use xlink:href="#d1PvNRGLUD" opacity="1" fill-opacity="0" stroke="#2d14e7" stroke-width="1" stroke-opacity="1"></use></g><g><filter id="shadow4231666" x="173.11" y="25.21" width="136.89" height="132.69" filterUnits="userSpaceOnUse" primitiveUnits="userSpaceOnUse"><feFlood></feFlood><feComposite in2="SourceAlpha" operator="out"></feComposite><feGaussianBlur stdDeviation="1"></feGaussianBlur><feOffset dx="1" dy="1" result="afterOffset"></feOffset><feFlood flood-color="#ffffff" flood-opacity="0.8"></feFlood><feComposite in2="afterOffset" operator="in"></feComposite><feMorphology operator="dilate" radius="1"></feMorphology><feComposite in2="SourceAlpha" operator="in"></feComposite></filter><path d="M299.96 93.33C298.74 124.68 271.36 149.11 238.86 147.85C206.35 146.59 180.94 120.12 182.15 88.77C183.36 57.43 210.74 33 243.25 34.25C275.76 35.51 301.17 61.98 299.96 93.33Z" id="a2heVf2RCV" fill="white" fill-opacity="1" filter="url(#shadow4231666)"></path></g></g><g><use xlink:href="#bbGvMs5KW" opacity="1" fill="#000000" fill-opacity="1"></use></g><g><g><use xlink:href="#b5jFBbCHjg" opacity="1" fill-opacity="0" stroke="#000000" stroke-width="1" stroke-opacity="1"></use></g></g><g><g><use xlink:href="#aQO5UBXio" opacity="1" fill-opacity="0" stroke="#020108" stroke-width="1" stroke-opacity="1"></use></g></g><g><g><use xlink:href="#a4y4Ga4Og1" opacity="1" fill-opacity="0" stroke="#020108" stroke-width="1" stroke-opacity="1"></use></g></g><g><g><use xlink:href="#c1UqYwgsZz" opacity="1" fill-opacity="0" stroke="#020108" stroke-width="1" stroke-opacity="1"></use></g></g><g><use xlink:href="#g1O4pg3RTn" opacity="1" fill="#9cb9ea" fill-opacity="1"></use><g><use xlink:href="#g1O4pg3RTn" opacity="1" fill-opacity="0" stroke="#020108" stroke-width="1" stroke-opacity="1"></use></g></g><g><g><use xlink:href="#au0CmxOm0" opacity="1" fill-opacity="0" stroke="#020108" stroke-width="1" stroke-opacity="1"></use></g></g><g><g><use xlink:href="#eR4IQYhML" opacity="1" fill-opacity="0" stroke="#020108" stroke-width="1" stroke-opacity="1"></use></g></g><g><g><use xlink:href="#alxXGSRs0" opacity="1" fill-opacity="0" stroke="#2d14e7" stroke-width="1" stroke-opacity="1"></use></g><g><filter id="shadow1295972" x="135.21" y="210.47" width="136.89" height="132.68" filterUnits="userSpaceOnUse" primitiveUnits="userSpaceOnUse"><feFlood></feFlood><feComposite in2="SourceAlpha" operator="out"></feComposite><feGaussianBlur stdDeviation="1"></feGaussianBlur><feOffset dx="1" dy="1" result="afterOffset"></feOffset><feFlood flood-color="#ffffff" flood-opacity="0.8"></feFlood><feComposite in2="afterOffset" operator="in"></feComposite><feMorphology operator="dilate" radius="1"></feMorphology><feComposite in2="SourceAlpha" operator="in"></feComposite></filter><path d="M262.11 276.32C262.11 307.69 235.69 333.16 203.16 333.16C170.62 333.16 144.21 307.69 144.21 276.32C144.21 244.94 170.62 219.47 203.16 219.47C235.69 219.47 262.11 244.94 262.11 276.32Z" id="cM9jfE967" fill="white" fill-opacity="1" filter="url(#shadow1295972)"></path></g></g><g><g><use xlink:href="#a8uKWekiVb" opacity="1" fill-opacity="0" stroke="#2d14e7" stroke-width="1" stroke-opacity="1"></use></g><g><filter id="shadow7509052" x="104.68" y="241" width="136.89" height="132.68" filterUnits="userSpaceOnUse" primitiveUnits="userSpaceOnUse"><feFlood></feFlood><feComposite in2="SourceAlpha" operator="out"></feComposite><feGaussianBlur stdDeviation="1"></feGaussianBlur><feOffset dx="1" dy="1" result="afterOffset"></feOffset><feFlood flood-color="#ffffff" flood-opacity="0.8"></feFlood><feComposite in2="afterOffset" operator="in"></feComposite><feMorphology operator="dilate" radius="1"></feMorphology><feComposite in2="SourceAlpha" operator="in"></feComposite></filter><path d="M231.58 306.84C231.58 338.21 205.17 363.68 172.63 363.68C140.1 363.68 113.68 338.21 113.68 306.84C113.68 275.47 140.1 250 172.63 250C205.17 250 231.58 275.47 231.58 306.84Z" id="cmz0PCk1E" fill="white" fill-opacity="1" filter="url(#shadow7509052)"></path></g></g><g><use xlink:href="#c1y8tWpgj" opacity="1" fill="#000000" fill-opacity="1"></use></g><g><use xlink:href="#aEp5RKhvK" opacity="1" fill="#000000" fill-opacity="1"></use></g><g><use xlink:href="#g59Zld2ox8" opacity="1" fill="#09295d" fill-opacity="1"></use><g><use xlink:href="#g59Zld2ox8" opacity="1" fill-opacity="0" stroke="#020108" stroke-width="1" stroke-opacity="1"></use></g></g><g><g><use xlink:href="#a95IfuvzV" opacity="1" fill-opacity="0" stroke="#020108" stroke-width="1" stroke-opacity="1"></use></g></g><g><use xlink:href="#b5qRaPBpQB" opacity="1" fill="#052f75" fill-opacity="1"></use><g><use xlink:href="#b5qRaPBpQB" opacity="1" fill-opacity="0" stroke="#020108" stroke-width="1" stroke-opacity="1"></use></g></g><g><g><use xlink:href="#bbP8633ue" opacity="1" fill-opacity="0" stroke="#020108" stroke-width="1" stroke-opacity="1"></use></g></g><g><use xlink:href="#f2sUpN0j9v" opacity="1" fill="#04317b" fill-opacity="1"></use><g><use xlink:href="#f2sUpN0j9v" opacity="1" fill-opacity="0" stroke="#020108" stroke-width="1" stroke-opacity="1"></use></g></g></g></g></svg>